<?xml version="1.0" encoding="UTF-8"?><svg id="Layer_2" xmlns="http://www.w3.org/2000/svg" viewBox="0 0 165.63 288.71"><g id="Layer_1-2"><g><path d="M147.97,288.13c.05-.17,.11-.34,.17-.51l-.44-.37c.34-.25,.63-.52,.88-.79,.34-.78,.74-1.51,1.21-2.2,.39-1.47,.17-3.05,0-4.62-2.75-25.65-5.51-51.3-8.25-76.95-.33-3.11-.58-6.22-.87-9.42,1.19-.12,2.01-.21,2.84-.28,11.08-.92,19.65-8.62,21.73-19.52,1.94-10.17-3.4-20.82-13.1-25.36-4.74-2.22-9.73-3.91-14.68-5.63-1.88-.66-2.52-1.64-2.71-3.57-.96-10.02-2.05-20.03-3.16-30.04-1.84-16.62-3.78-33.23-3.16-50.02,.27-7.4-.05-14.81,.09-22.22,.06-3.17-1.11-5.33-3.71-7.07-8.5-5.71-16.94-11.51-25.38-17.32-5.89-4.05-11.73-8.17-17.6-12.25h-6.5c-.49,.44-.94,.93-1.47,1.3-13.12,8.99-26.15,18.13-39.46,26.84-4.3,2.82-5.79,6-5.77,11.06,.08,19.88,1.01,39.79-1.84,59.59-.36,2.48-.8,3.57-3.76,3.69-10,.39-17.26,5.44-21.08,14.64-3.7,8.91-2.1,17.28,4.15,24.7,3.41,4.05,7.98,6.17,12.86,7.77,1.53,.5,2.27,1.13,2.07,3.01-4.49,41.79-8.9,83.59-13.33,125.39-.34,3.25-1.46,6.59,2.17,9.73h-1.49c.17,.31,.33,.63,.47,.96,46.32,.02,92.65,.02,138.97,.03,.05-.19,.09-.39,.14-.58ZM60.8,21.38c5.35-3.67,10.67-7.37,16.09-10.93,.77-.5,2.34-.74,3-.3,9.19,6.15,18.29,12.43,27.41,18.69,.25,.17,.42,.44,.91,.94H48.58c4.46-3.07,8.33-5.75,12.22-8.41Zm-19.85,17.71c25.15,.07,50.3,.06,75.45,0,2.09,0,2.94,.43,2.91,2.74-.12,10.23-.11,20.47,0,30.7,.02,2.15-.75,2.64-2.75,2.62-12.74-.07-25.48-.04-38.23-.04-12.49,0-24.99-.04-37.48,.04-2.07,.01-2.93-.4-2.91-2.72,.12-10.15,.12-20.3,0-30.45-.03-2.35,.76-2.91,3-2.9Zm-5.35,62.88c.81-5.09,1.22-10.24,1.69-15.38,.15-1.66,.76-2.27,2.48-2.27,25.9,.04,51.81,.03,77.71,0,1.43,0,2.31,.22,2.49,1.94,1.7,16.55,3.48,33.1,5.22,49.64,.06,.54-.06,1.1-.12,1.94-2.93-1.06-5.64-2.04-8.35-3.04-26.19-9.59-52.36-19.22-78.58-28.74-2.19-.8-2.92-1.67-2.53-4.11Zm-25.73,27.83c-.28-1.1-.35-2.25-.61-3.93,1.33,.41,2.23,.65,3.1,.97,33.87,12.38,67.74,24.77,101.62,37.14,1.09,.4,2.22,.79,3.36,.89,2.16,.18,3.75-.88,4.45-2.9,.73-2.09,.27-3.99-1.68-5.26-.9-.58-1.93-.98-2.94-1.35-33.79-12.37-67.58-24.73-101.37-37.09-.92-.34-1.83-.72-3.22-1.27,3.37-3.89,7.3-5.68,12-5.31,2.52,.2,5.05,1.02,7.45,1.9,31.84,11.62,63.66,23.31,95.49,34.98,6.57,2.41,13.16,4.76,19.68,7.3,4.75,1.85,7.7,5.42,8.83,10.4,.21,.92,.16,1.9,.26,3.35-4.94-1.79-9.46-3.42-13.97-5.05-1.64-.6-3.27-1.25-4.93-1.8-3.36-1.12-5.9-.14-6.82,2.57-.87,2.58,.52,4.88,3.71,6.06,5.31,1.97,10.63,3.9,15.95,5.86,.84,.31,1.66,.67,2.51,1.02-2.57,4.52-9.33,6.74-15.12,4.89-4.36-1.39-8.63-3.06-12.94-4.63-34.41-12.6-68.81-25.25-103.24-37.79-5.54-2.02-10.04-4.89-11.59-10.96Zm90.62,148.77c-14.58-.07-29.16-.06-43.74,0-1.8,0-2.5-.47-2.49-2.38,.06-14.9,.05-29.8,0-44.7,0-1.7,.5-2.31,2.28-2.31,14.75,.06,29.49,.06,44.24,0,1.82,0,2.25,.7,2.23,2.35-.06,7.49-.03,14.98-.03,22.47,0,7.32-.05,14.65,.04,21.97,.02,1.94-.55,2.6-2.54,2.59Zm-4.17-58.55c-12.99,0-25.97-.05-38.96,.05-2.36,.02-3.18-.6-3.12-3.05,.14-6.23,.03-6.24,6.37-6.24h17.98c7.33,0,14.65,.05,21.98-.03,1.82-.02,2.45,.53,2.47,2.41,.05,6.86,.12,6.86-6.71,6.86Zm41.49,58.55c-7.66-.09-15.33-.11-22.99,0-2.15,.03-2.63-.76-2.63-2.76,.06-22.47,.04-44.95,.04-67.42,0-5.41-1.41-6.87-6.78-6.87-18-.01-35.99,0-53.99,.02-4.86,0-6.41,1.59-6.41,6.49,0,22.39,0,44.78,0,67.17,0,3.32,0,3.34-3.2,3.34-7.5,0-15-.05-22.49,.02-1.84,.02-2.46-.43-2.24-2.42,3.44-31.77,6.81-63.55,10.19-95.32,.87-8.19,1.71-16.39,2.57-24.58,.07-.64,.22-1.28,.42-2.35,1.42,.47,2.52,.79,3.6,1.19,31.67,11.61,63.32,23.24,95.01,34.8,1.7,.62,2.27,1.55,2.45,3.23,2.9,27.64,5.84,55.28,8.83,82.91,.22,2.07-.38,2.59-2.37,2.56Z"/><path d="M73.92,57.06c.1-1.65,.06-3.33,.33-4.95,.38-2.25,1.91-3.44,4.15-3.61,2.19-.17,4.3,1.17,4.51,3.42,.31,3.44,.31,6.95,.03,10.4-.17,2.18-2.39,3.62-4.47,3.54-2.14-.08-3.87-1.6-4.28-3.82-.15-.81-.16-1.65-.19-2.48-.03-.83,0-1.66,0-2.49h-.08Z"/><path d="M60.74,57.19c-.1,1.53-.08,3.29-.36,4.99-.37,2.24-2.22,3.68-4.38,3.67-2.16,0-4.16-1.42-4.34-3.68-.26-3.29-.29-6.63-.02-9.92,.19-2.4,2.23-3.88,4.5-3.76,2.39,.12,3.89,1.43,4.27,3.77,.25,1.54,.22,3.14,.33,4.92Z"/><path d="M105.76,57.3c0,1.49,.16,3-.03,4.47-.33,2.51-2.26,4.14-4.57,4.1-2.3-.04-4.22-1.73-4.37-4.26-.18-2.97-.2-5.97,0-8.94,.16-2.54,2.08-4.17,4.42-4.19,2.33-.02,4.23,1.58,4.54,4.1,.19,1.55,.04,3.14,.04,4.72h-.02Z"/></g></g></svg>